<?xml version="1.0"?>
<svg xmlns="http://www.w3.org/2000/svg" height="512px" version="1.1" viewBox="0 0 512 512" width="512px">
<g id="surface1">
<path d="M 495.933594 376.46875 C 495.933594 364.136719 491.867188 352.742188 485.003906 343.542969 C 501.152344 333.910156 512 316.269531 512 296.136719 C 512 276.003906 501.152344 258.363281 485.003906 248.726562 C 491.863281 239.53125 495.933594 228.132812 495.933594 215.804688 C 495.933594 185.382812 471.1875 160.636719 440.765625 160.636719 L 315.277344 160.636719 L 368.054688 107.859375 C 392.695312 83.21875 392.695312 43.125 368.054688 18.476562 C 343.414062 -6.160156 303.320312 -6.160156 278.675781 18.480469 L 136.519531 160.636719 L 15 160.636719 C 6.714844 160.636719 0 167.351562 0 175.636719 L 0 416.636719 C 0 424.917969 6.714844 431.636719 15 431.636719 L 81.511719 431.636719 C 88.726562 477.101562 128.199219 511.96875 175.664062 511.96875 L 424.699219 511.96875 C 455.117188 511.96875 479.867188 487.222656 479.867188 456.800781 C 479.867188 444.472656 475.800781 433.074219 468.933594 423.875 C 485.085938 414.242188 495.933594 396.601562 495.933594 376.46875 Z M 440.765625 401.636719 L 344.367188 401.636719 C 330.488281 401.636719 319.199219 390.34375 319.199219 376.46875 C 319.199219 362.59375 330.488281 351.304688 344.367188 351.304688 L 440.765625 351.304688 C 454.644531 351.304688 465.933594 362.59375 465.933594 376.46875 C 465.933594 390.347656 454.644531 401.636719 440.765625 401.636719 Z M 319.199219 296.136719 C 319.199219 282.257812 330.488281 270.96875 344.367188 270.96875 L 456.832031 270.96875 C 470.710938 270.96875 482 282.257812 482 296.136719 C 482 310.011719 470.710938 321.304688 456.832031 321.304688 L 344.367188 321.304688 C 330.488281 321.304688 319.199219 310.011719 319.199219 296.136719 Z M 465.933594 215.804688 C 465.933594 229.679688 454.644531 240.96875 440.765625 240.96875 L 344.367188 240.96875 C 330.488281 240.96875 319.199219 229.679688 319.199219 215.804688 C 319.199219 201.925781 330.488281 190.636719 344.367188 190.636719 L 440.765625 190.636719 C 454.644531 190.636719 465.933594 201.925781 465.933594 215.804688 Z M 110.335938 416.636719 C 110.335938 408.351562 103.617188 401.636719 95.335938 401.636719 L 30 401.636719 L 30 190.636719 L 142.734375 190.636719 C 146.714844 190.636719 150.527344 189.054688 153.339844 186.242188 L 299.886719 39.691406 C 312.835938 26.75 333.898438 26.75 346.839844 39.691406 C 359.78125 52.636719 359.785156 73.703125 346.839844 86.644531 L 268.453125 165.03125 C 264.164062 169.320312 262.882812 175.769531 265.203125 181.375 C 267.523438 186.980469 272.992188 190.636719 279.0625 190.636719 L 295.300781 190.636719 C 291.410156 198.1875 289.199219 206.742188 289.199219 215.804688 L 289.199219 255.96875 C 289.199219 291.996094 259.890625 321.304688 223.867188 321.304688 C 215.582031 321.304688 208.867188 328.019531 208.867188 336.304688 C 208.867188 344.585938 215.582031 351.304688 223.867188 351.304688 C 251.882812 351.304688 277.109375 339.15625 294.566406 319.851562 C 297.539062 326.070312 301.644531 331.632812 306.609375 336.304688 C 295.902344 346.371094 289.199219 360.648438 289.199219 376.46875 C 289.199219 396.601562 300.046875 414.242188 316.199219 423.875 C 309.335938 433.074219 305.265625 444.472656 305.265625 456.800781 C 305.265625 465.867188 307.476562 474.417969 311.367188 481.96875 L 175.664062 481.96875 C 139.640625 481.96875 110.335938 452.660156 110.335938 416.636719 Z M 424.699219 481.96875 L 360.433594 481.96875 C 346.558594 481.96875 335.269531 470.679688 335.269531 456.800781 C 335.269531 442.925781 346.558594 431.636719 360.433594 431.636719 L 424.699219 431.636719 C 438.578125 431.636719 449.867188 442.925781 449.867188 456.800781 C 449.867188 470.679688 438.578125 481.96875 424.699219 481.96875 Z M 424.699219 481.96875 " style=" fill-rule:nonzero;fill-opacity:1;" stroke="#91DC5A" fill="#91DC5A"/>
</g>
</svg>
